#N canvas 66 105 1250 551 10;
#X obj 265 125 nbx 2 93 0 999 0 0 empty empty empty 0 -8 0 74 -262144
-1 -260097 0 256 0;
#X obj 449 282 metro 20;
#X obj 606 320 voice;
#X obj 606 96 adc~ 1 2 3 4 5, f 84;
#X obj 731 320 voice;
#X obj 856 320 voice;
#X obj 981 320 voice;
#X obj 1107 320 voice;
#N canvas 433 184 450 300 init 0;
#X obj 21 24 loadbang;
#X msg 21 90 \; pd dsp 1;
#X obj 120 87 preset_node;
#X obj 21 45 t b b b b b b b b;
#X msg 120 66 recall 1;
#X connect 0 0 3 0;
#X connect 3 0 1 0;
#X connect 3 7 4 0;
#X connect 4 0 2 0;
#X restore 369 90 pd init;
#X obj 300 90 preset_hub %hidden% %node% 1 10 %preset% 1 70 %node%
1 12 %preset% 1 70 %node% 2 14 4 %preset% 1 192.168.1.100 %node% 1
15 %preset% 1 70 %node% 1 17 %preset% 1 70 %node% 1 19 %preset% 1 70
%node% 1 21 %preset% 1 1000 %node% 1 23 %preset% 1 1000 %node% 2 8
2 %node% 1 25 %preset% 1 1000 %node% 1 27 %preset% 1 1000 %node% 1
29 %preset% 1 1000 %node% 1 31 %preset% 1 100 %node% 1 92 %node% 1
38 %preset% 1 icat02 %node% 1 40 %preset% 1 icat03 %node% 1 42 %preset%
1 icat04 %node% 1 35 %preset% 1 icat01 %node% 1 101 %node% 2 36 6 %preset%
1 @mouth %node% 1 94 %preset% 1 regina %node% 1 96 %preset% 1 x %node%
1 98 %preset% 1 lilith %node% 1 44 %preset% 1 icat05 %node% 1 53 %preset%
1 20 %node% 1 52 %preset% 1 20;
#X obj 620 122 preset_node;
#X obj 620 143 nbx 5 14 -1e+37 1e+37 0 0 empty empty empty 0 -8 0 10
-262144 -1 -1 70 256 0;
#X obj 744 122 preset_node;
#X obj 745 143 nbx 5 14 -1e+37 1e+37 0 0 empty empty empty 0 -8 0 10
-262144 -1 -1 70 256 0;
#N canvas 433 184 420 196 net_init 0;
#X obj 126 45 loadbang;
#X obj 126 118 outlet;
#X msg 126 97 connect \$1 7000;
#X symbolatom 126 76 30 0 0 0 - - -, f 30;
#X obj 186 45 preset_node;
#X connect 0 0 3 0;
#X connect 2 0 1 0;
#X connect 3 0 2 0;
#X connect 4 0 3 0;
#X restore 738 496 pd net_init;
#X obj 869 122 preset_node;
#X obj 870 143 nbx 5 14 -1e+37 1e+37 0 0 empty empty empty 0 -8 0 10
-262144 -1 -1 70 256 0;
#X obj 994 122 preset_node;
#X obj 995 143 nbx 5 14 -1e+37 1e+37 0 0 empty empty empty 0 -8 0 10
-262144 -1 -1 70 256 0;
#X obj 1120 122 preset_node;
#X obj 1121 143 nbx 5 14 -1e+37 1e+37 0 0 empty empty empty 0 -8 0
10 -262144 -1 -1 70 256 0;
#X obj 634 166 preset_node;
#X obj 634 187 nbx 5 14 -1e+37 1e+37 0 0 empty empty empty 0 -8 0 10
-262144 -1 -1 1000 256 0;
#X obj 759 166 preset_node;
#X obj 759 187 nbx 5 14 -1e+37 1e+37 0 0 empty empty empty 0 -8 0 10
-262144 -1 -1 1000 256 0;
#X obj 884 166 preset_node;
#X obj 884 187 nbx 5 14 -1e+37 1e+37 0 0 empty empty empty 0 -8 0 10
-262144 -1 -1 1000 256 0;
#X obj 1009 166 preset_node;
#X obj 1009 187 nbx 5 14 -1e+37 1e+37 0 0 empty empty empty 0 -8 0
10 -262144 -1 -1 1000 256 0;
#X obj 1135 166 preset_node;
#X obj 1135 187 nbx 5 14 -1e+37 1e+37 0 0 empty empty empty 0 -8 0
10 -262144 -1 -1 1000 256 0;
#X obj 1149 212 preset_node;
#X obj 1149 233 nbx 5 14 -1e+37 1e+37 0 0 empty empty empty 0 -8 0
10 -262144 -1 -1 100 256 0;
#X msg 300 63 store 1;
#X symbolatom 606 374 10 0 0 0 - - -, f 10;
#X obj 656 341 preset_node;
#N canvas 433 184 300 276 create_packet 0;
#X obj 68 55 inlet;
#X obj 149 55 inlet;
#X obj 68 180 list trim;
#X obj 68 159 pack s s s 0, f 14;
#X symbolatom 168 110 10 0 0 0 - - -, f 10;
#X msg 68 110 symbol send;
#X obj 168 88 preset_node;
#X obj 68 76 t b s;
#X obj 68 201 outlet;
#X connect 0 0 7 0;
#X connect 1 0 3 3;
#X connect 2 0 8 0;
#X connect 3 0 2 0;
#X connect 4 0 3 2;
#X connect 4 0 6 0;
#X connect 5 0 3 0;
#X connect 6 0 4 0;
#X connect 7 0 5 0;
#X connect 7 1 3 1;
#X restore 731 474 pd create_packet;
#X symbolatom 731 374 10 0 0 0 - - -, f 10;
#X obj 781 341 preset_node;
#X symbolatom 856 374 10 0 0 0 - - -, f 10;
#X obj 906 341 preset_node;
#X symbolatom 981 374 10 0 0 0 - - -, f 10;
#X obj 1031 341 preset_node;
#X symbolatom 1106 374 10 0 0 0 - - -, f 10;
#X obj 1156 341 preset_node;
#X obj 606 341 t b f;
#X obj 731 341 t b f;
#X obj 856 341 t b f;
#X obj 981 341 t b f;
#X obj 1106 341 t b f;
#N canvas 379 137 339 477 color 0;
#X obj 194 83 t b f;
#X obj 144 143 +;
#X obj 144 168 t b f;
#X obj 144 207 +;
#X obj 82 83 * -65536;
#X obj 144 83 * -256;
#X obj 194 61 * -1;
#X obj 144 230 - 1;
#X obj 144 11 inlet;
#X obj 144 438 s \$0-current-fade-color;
#X msg 144 410 color \$1 \$2 \$3;
#X floatatom 180 317 5 0 0 0 - - -, f 5;
#X obj 180 338 t b f;
#X obj 144 383 pack 0 0 14;
#X connect 0 0 1 0;
#X connect 0 1 1 1;
#X connect 1 0 2 0;
#X connect 2 0 3 0;
#X connect 2 1 3 1;
#X connect 3 0 7 0;
#X connect 4 0 3 0;
#X connect 5 0 1 0;
#X connect 6 0 0 0;
#X connect 7 0 13 0;
#X connect 8 0 4 0;
#X connect 8 0 5 0;
#X connect 8 0 6 0;
#X connect 10 0 9 0;
#X connect 11 0 12 0;
#X connect 12 0 13 0;
#X connect 12 1 13 2;
#X connect 13 0 10 0;
#X restore 391 374 pd color;
#X obj 391 352 expr 255-$f1*17;
#X obj 519 227 preset_node;
#X obj 519 248 nbx 5 14 -1e+37 1e+37 0 0 empty empty empty 0 -8 0 10
-262144 -1 -1 20 256 0;
#X obj 449 304 counter 2 0 15;
#X obj 490 331 sel 1;
#X obj 449 113 bng 105 250 50 0 empty \$0-current-fade-color FADE 30
54 0 20 -262144 -262144 -260818;
#X msg 449 223 1;
#X msg 490 352 0;
#X msg 356 63 recall 1;
#X text 603 25 VOICE INLETS:1) input signal2) 0-100 threshold (noise-gate
\, default 70)3) frequency change threshold (>0 \, default 1000)4)
rate (ms \, default 100);
#X msg 265 340 send @tpall \$1;
#X text 330 200 TELEPORT;
#X obj 18 160 bng 58 250 50 0 empty empty DAY 18 31 0 14 -262144 -1
-260097;
#X obj 81 160 bng 58 250 50 0 empty empty NIGHT 10 31 0 14 -262144
-1 -260097;
#X msg 81 223 12500;
#X msg 18 223 0;
#X msg 18 340 send @time \$1;
#X obj 145 125 nbx 1 93 0 5 0 0 empty empty empty 0 -8 0 74 -262144
-1 -260097 0 256 0;
#X text 195 201 CAMERA;
#X msg 145 340 send @view \$1;
#X text 19 502 Pd-L2Ork->OPERACRAFT INTERFACE by Ivica Ico Bukvic (c)
2013 <ico@vt.edu>;
#X obj 731 517 disis_netsend 1;
#X msg 449 374 send icat11 @fade \$1;
#X connect 0 0 61 0;
#X connect 1 0 54 0;
#X connect 2 0 45 0;
#X connect 3 0 2 0;
#X connect 3 1 4 0;
#X connect 3 2 5 0;
#X connect 3 3 6 0;
#X connect 3 4 7 0;
#X connect 4 0 46 0;
#X connect 10 0 11 0;
#X connect 11 0 2 1;
#X connect 12 0 13 0;
#X connect 13 0 4 1;
#X connect 14 0 72 0;
#X connect 15 0 16 0;
#X connect 16 0 5 1;
#X connect 17 0 18 0;
#X connect 18 0 6 1;
#X connect 19 0 20 0;
#X connect 20 0 7 1;
#X connect 21 0 22 0;
#X connect 22 0 2 2;
#X connect 23 0 24 0;
#X connect 24 0 4 2;
#X connect 25 0 26 0;
#X connect 26 0 5 2;
#X connect 27 0 28 0;
#X connect 28 0 6 2;
#X connect 29 0 30 0;
#X connect 30 0 7 2;
#X connect 31 0 32 0;
#X connect 32 0 2 3;
#X connect 32 0 4 3;
#X connect 32 0 5 3;
#X connect 32 0 6 3;
#X connect 32 0 7 3;
#X connect 33 0 9 0;
#X connect 34 0 36 0;
#X connect 35 0 34 0;
#X connect 36 0 72 0;
#X connect 37 0 38 0;
#X connect 37 0 36 0;
#X connect 38 0 37 0;
#X connect 39 0 40 0;
#X connect 39 0 36 0;
#X connect 40 0 39 0;
#X connect 41 0 42 0;
#X connect 41 0 36 0;
#X connect 42 0 41 0;
#X connect 43 0 44 0;
#X connect 43 0 36 0;
#X connect 44 0 43 0;
#X connect 45 0 34 0;
#X connect 45 1 36 1;
#X connect 46 0 37 0;
#X connect 46 1 36 1;
#X connect 47 0 39 0;
#X connect 47 1 36 1;
#X connect 48 0 41 0;
#X connect 48 1 36 1;
#X connect 49 0 43 0;
#X connect 49 1 36 1;
#X connect 51 0 50 0;
#X connect 52 0 53 0;
#X connect 53 0 1 1;
#X connect 54 0 51 0;
#X connect 54 0 73 0;
#X connect 54 1 55 0;
#X connect 54 2 55 0;
#X connect 55 0 58 0;
#X connect 56 0 57 0;
#X connect 57 0 1 0;
#X connect 58 0 1 0;
#X connect 59 0 9 0;
#X connect 61 0 72 0;
#X connect 63 0 66 0;
#X connect 64 0 65 0;
#X connect 65 0 67 0;
#X connect 66 0 67 0;
#X connect 67 0 72 0;
#X connect 68 0 70 0;
#X connect 70 0 72 0;
#X connect 73 0 72 0;
