#N canvas 367 71 575 569 10;
#X obj 136 157 cyclone/zerox~;
#X obj 67 120 env~ 4096;
#X obj 52 192 + 1;
#X obj 52 143 f;
#X msg 52 238 0;
#X obj 25 98 t b b;
#X obj 25 56 tgl 15 0 empty empty empty 17 7 0 10 -262144 -1 -1 1 1
;
#X obj 163 516 change;
#X obj 158 87 loadbang;
#X obj 158 110 samplerate~;
#X obj 158 134 / 64;
#X obj 137 183 *~ 0;
#X obj 136 207 *~ 0.5;
#X obj 137 231 snapshot~;
#X floatatom 137 254 5 0 0 0 - - -, f 5;
#X obj 52 215 gate 2 2;
#X obj 52 166 > 70;
#X obj 163 419 gate 2 1;
#X obj 163 396 + 1;
#X obj 136 370 t b f;
#X obj 240 450 random 2;
#X obj 240 473 + 3;
#X obj 163 473 counter 1 2;
#X obj 137 275 t f f;
#X obj 137 299 -;
#X obj 137 322 abs;
#X obj 137 345 > 1000;
#X obj 25 76 metro 100;
#X obj 183 28 inlet;
#X obj 136 28 inlet~;
#X obj 223 28 inlet;
#X obj 263 28 inlet;
#X text 253 92 INLETS:input signal0-100 threshold (noise-gate \,
default 70)frequency change threshold (>0 \, default 1000)rate (ms
\, default 100);
#X obj 25 28 loadbang;
#X obj 163 538 outlet;
#X connect 0 0 11 0;
#X connect 1 0 3 1;
#X connect 2 0 15 0;
#X connect 3 0 16 0;
#X connect 4 0 7 0;
#X connect 5 0 15 1;
#X connect 5 1 3 0;
#X connect 6 0 27 0;
#X connect 7 0 34 0;
#X connect 8 0 9 0;
#X connect 9 0 10 0;
#X connect 10 0 11 1;
#X connect 11 0 12 0;
#X connect 12 0 13 0;
#X connect 13 0 14 0;
#X connect 14 0 23 0;
#X connect 15 0 4 0;
#X connect 15 1 13 0;
#X connect 16 0 2 0;
#X connect 17 0 22 0;
#X connect 17 1 20 0;
#X connect 18 0 17 0;
#X connect 19 0 17 1;
#X connect 19 1 18 0;
#X connect 20 0 21 0;
#X connect 21 0 7 0;
#X connect 22 0 7 0;
#X connect 23 0 24 1;
#X connect 23 1 24 0;
#X connect 24 0 25 0;
#X connect 25 0 26 0;
#X connect 26 0 19 0;
#X connect 27 0 5 0;
#X connect 28 0 16 1;
#X connect 29 0 0 0;
#X connect 29 0 1 0;
#X connect 30 0 26 1;
#X connect 31 0 27 1;
#X connect 33 0 6 0;
