#N canvas 1198 592 588 413 10;
#X obj 139 253 netsend 1;
#X msg 88 104 disconnect;
#X floatatom 137 280 5 0 0 0 - - -;
#X msg 223 208 send @warn ICAT01 watch out!;
#X msg 408 260 send @time \$1;
#X floatatom 408 237 5 0 0 0 - - -;
#X msg 301 116 send ICAT01 @text hello there!;
#X msg 303 138 send Ico @text hello there!;
#X msg 299 94 send null @text hello there!;
#X msg 76 76 connect localhost 7000;
#X floatatom 213 313 5 0 0 0 - - -;
#X msg 212 334 send @view \$1;
#X msg 100 48 connect localhost 7001;
#X obj 283 273 nbx 5 14 0 15 0 0 empty empty empty 0 -8 0 10 -262144
-1 -1 0 256;
#X msg 287 303 send ICAT09 @fade \$1;
#X msg 218 186 send ICAT01 @mouth \$1;
#X obj 212 108 tgl 15 0 empty empty empty 17 7 0 10 -262144 -1 -1 0
1;
#X obj 210 131 metro 100;
#X obj 212 154 random 5;
#X floatatom 182 354 5 0 0 0 - - -;
#X msg 183 376 send @tpone \$1 ICAT01;
#X obj 47 270 tgl 15 0 empty empty empty 17 7 0 10 -262144 -1 -1 0
1;
#X obj 47 316 random 2;
#X obj 47 345 + 1;
#X obj 45 293 metro 200;
#X floatatom 74 270 5 0 0 0 - - -;
#X obj 38 137 tgl 15 0 empty empty empty 17 7 0 10 -262144 -1 -1 0
1;
#X floatatom 65 137 5 0 0 0 - - -;
#X obj 38 183 counter 1 2;
#X obj 36 160 metro 500;
#X msg 300 18 send /time set 0;
#X msg 310 41 send /time set 12500;
#X connect 0 0 2 0;
#X connect 1 0 0 0;
#X connect 3 0 0 0;
#X connect 4 0 0 0;
#X connect 5 0 4 0;
#X connect 6 0 0 0;
#X connect 7 0 0 0;
#X connect 8 0 0 0;
#X connect 9 0 0 0;
#X connect 10 0 11 0;
#X connect 11 0 0 0;
#X connect 12 0 0 0;
#X connect 13 0 14 0;
#X connect 14 0 0 0;
#X connect 15 0 0 0;
#X connect 16 0 17 0;
#X connect 17 0 18 0;
#X connect 18 0 15 0;
#X connect 19 0 20 0;
#X connect 20 0 0 0;
#X connect 21 0 24 0;
#X connect 22 0 23 0;
#X connect 23 0 19 0;
#X connect 24 0 22 0;
#X connect 25 0 24 1;
#X connect 26 0 29 0;
#X connect 27 0 29 1;
#X connect 28 0 10 0;
#X connect 29 0 28 0;
#X connect 30 0 0 0;
#X connect 31 0 0 0;
